<?xml version="1.0" standalone="no"?>
<!DOCTYPE svg PUBLIC "-//W3C//DTD SVG 20010904//EN"
 "http://www.w3.org/TR/2001/REC-SVG-20010904/DTD/svg10.dtd">
<svg version="1.0" xmlns="http://www.w3.org/2000/svg"
 width="300.000000pt" height="300.000000pt" viewBox="0 0 300.000000 300.000000"
 preserveAspectRatio="xMidYMid meet">
<metadata>
Created by potrace 1.11, written by Peter Selinger 2001-2013
</metadata>
<g transform="translate(0.000000,300.000000) scale(0.100000,-0.100000)"
fill="#000000" stroke="none">
<path d="M377 2874 c-15 -14 -29 -40 -32 -58 -3 -17 -5 -269 -3 -561 3 -517 4
-531 24 -576 29 -62 84 -122 133 -144 l40 -18 3 -643 3 -642 30 -43 c17 -23
50 -53 74 -66 41 -21 56 -23 196 -23 140 0 155 2 196 23 24 13 58 43 74 66
l30 43 3 642 3 643 40 18 c49 22 104 82 133 144 20 45 21 59 24 576 2 292 0
544 -3 561 -18 103 -159 115 -196 17 -5 -13 -9 -179 -9 -369 l0 -346 -29 -29
c-41 -40 -91 -40 -132 0 l-29 29 0 346 c0 190 -4 356 -9 369 -35 90 -157 90
-192 0 -5 -13 -9 -179 -9 -369 l0 -346 -29 -29 c-41 -40 -91 -40 -132 0 l-29
29 0 346 c0 190 -4 356 -9 369 -27 70 -114 91 -164 41z"/>
<path d="M1910 2886 c-173 -48 -328 -214 -360 -385 -6 -32 -10 -313 -10 -712
0 -584 2 -659 16 -673 13 -13 45 -16 199 -16 l184 0 3 -434 3 -434 30 -43 c17
-23 50 -53 74 -66 41 -21 56 -23 196 -23 140 0 155 2 196 23 24 13 58 43 74
66 l30 43 3 1276 c1 703 0 1291 -3 1308 -3 18 -17 44 -32 58 l-26 26 -266 -1
c-181 0 -280 -4 -311 -13z"/>
</g>
</svg>
